ply
format ascii 1.0
comment Created by Blender 3.2.2 - www.blender.org
element vertex 20
property float x
property float y
property float z
property float nx
property float ny
property float nz
element face 34
property list uchar uint vertex_indices
end_header
0.200000 0.200000 -0.590000 0.707107 0.707107 0.000000
0.200000 0.200000 -0.230000 0.707107 0.707107 0.000000
0.200000 -0.200000 -0.230000 0.707107 -0.707107 0.000000
0.200000 -0.200000 -0.590000 0.707107 -0.707107 0.000000
-0.200000 -0.200000 -0.230000 -0.707107 -0.707107 0.000000
-0.200000 -0.200000 -0.590000 -0.707107 -0.707107 0.000000
0.000000 -0.018946 0.000000 -0.000000 -0.605998 0.795466
-0.018946 0.000000 0.000000 -0.605998 0.000000 0.795466
0.000000 -0.150000 -0.190000 0.000000 -0.248840 0.968545
-0.150000 0.000000 -0.190000 -0.248840 -0.000000 0.968545
0.000000 0.018946 0.000000 0.000000 0.605998 0.795466
0.000000 0.150000 -0.190000 -0.000000 0.248840 0.968545
0.018946 0.000000 0.000000 0.605998 0.000000 0.795466
0.150000 0.000000 -0.190000 0.248840 0.000000 0.968545
-0.200000 0.200000 -0.230000 -0.707107 0.707107 0.000000
-0.200000 0.200000 -0.590000 -0.707107 0.707107 0.000000
0.200000 0.200000 -0.190000 0.577350 0.577350 0.577350
0.200000 -0.200000 -0.190000 0.577350 -0.577350 0.577350
-0.200000 0.200000 -0.190000 -0.577350 0.577350 0.577350
-0.200000 -0.200000 -0.190000 -0.577350 -0.577350 0.577350
3 0 1 2
3 2 3 0
3 3 2 4
3 4 5 3
3 6 7 8
3 7 9 8
3 7 10 9
3 9 10 11
3 10 12 11
3 12 13 11
3 6 13 12
3 6 8 13
3 6 12 7
3 7 12 10
3 4 14 5
3 15 5 14
3 14 1 15
3 0 15 1
3 1 16 17
3 17 2 1
3 18 16 14
3 1 14 16
3 19 18 4
3 14 4 18
3 2 17 19
3 19 4 2
3 9 19 8
3 8 19 17
3 13 8 17
3 13 17 16
3 11 13 16
3 18 11 16
3 18 9 11
3 18 19 9
