# .PCD v0.7 - Point Cloud Data file format
VERSION 0.7
FIELDS x y z
SIZE 4 4 4
TYPE F F F
COUNT 1 1 1
WIDTH 1068
HEIGHT 1
VIEWPOINT 0 0 0 1 0 0 0
POINTS 1068
DATA ascii
-0.081762373 0.0017988443 -0.020598073
-0.081703961 -0.0017359981 -0.020717189
-0.076453827 0.0069774031 -0.020728966
-0.07755366 0.0024413101 -0.020695956
-0.077393919 -0.0024971375 -0.020707451
-0.076804437 -0.0067525925 -0.020687757
-0.071798839 0.011755033 -0.020673754
-0.072491094 0.0076187295 -0.020779651
-0.072677292 0.0024328448 -0.020681972
-0.072443329 -0.0025189039 -0.020740571
-0.072430223 -0.0074766898 -0.020711901
-0.071491279 -0.011899827 -0.020674489
-0.066821024 0.016631966 -0.020687807
-0.067440875 0.012631251 -0.020732712
-0.067515261 0.007570012 -0.020716647
-0.067608885 0.0024790214 -0.020693861
-0.067425177 -0.0023806719 -0.02066444
-0.067327194 -0.0074781766 -0.020753181
-0.067300528 -0.012555817 -0.020716276
-0.066692784 -0.017065968 -0.020568309
-0.061775107 0.021843469 -0.020553796
-0.062484004 0.01755158 -0.020751331
-0.062432349 0.012545658 -0.020768549
-0.062522322 0.0074488493 -0.020736687
-0.062466033 0.0023785855 -0.020751163
-0.062553681 -0.0024277666 -0.020639705
-0.062493626 -0.0075018029 -0.020763416
-0.062464442 -0.012462802 -0.020680252
-0.062479392 -0.017560182 -0.020736264
-0.061799161 -0.021557933 -0.020635739
-0.060124863 -0.025098214 -0.020071542
-0.056985397 0.026592072 -0.02066958
-0.05759218 0.022640627 -0.020685576
-0.057530183 0.017536988 -0.020762727
-0.057487115 0.012584296 -0.020759922
-0.057528105 0.0075131529 -0.020709895
-0.05751488 0.0026099759 -0.020743161
-0.057449114 -0.0023130567 -0.020708781
-0.057476509 -0.007754059 -0.020778323
-0.057567451 -0.012527945 -0.020740181
-0.057417016 -0.01776213 -0.020760382
-0.057424888 -0.022289848 -0.020703238
-0.056652885 -0.026597397 -0.020659676
-0.055028338 -0.030067712 -0.020040484
-0.05169471 0.031708464 -0.020680897
-0.052484926 0.027193008 -0.020720093
-0.052462593 0.022656921 -0.020719314
-0.05255251 0.017522557 -0.020789811
-0.052481811 0.012541677 -0.020743297
-0.052459229 0.0074733752 -0.0207613
-0.053601138 0.0034586231 -0.02064584
-0.053844586 -0.0037518889 -0.020851059
-0.052476138 -0.0076766657 -0.020762112
-0.052690331 -0.012733436 -0.020739546
-0.052535858 -0.017486855 -0.020737339
-0.052585956 -0.022337558 -0.020699127
-0.052412819 -0.027526408 -0.020703947
-0.051588267 -0.03180157 -0.020704484
-0.046800397 0.036499541 -0.020725759
-0.047531635 0.032219201 -0.020719687
-0.047339536 0.027268374 -0.02068454
-0.047571816 0.022539036 -0.020717507
-0.04736099 0.017342184 -0.020711904
-0.047567051 0.012580225 -0.020730872
-0.048615247 0.0086751403 -0.020544147
-0.04910735 -0.0085087949 -0.020748112
-0.04730314 -0.01269583 -0.020760698
-0.047585845 -0.017516341 -0.020780059
-0.047486603 -0.022637725 -0.02072886
-0.04747989 -0.027503246 -0.020715868
-0.047439732 -0.03246785 -0.020684876
-0.046849553 -0.036737949 -0.020657862
-0.041417539 0.041975278 -0.020588815
-0.04264456 0.037384868 -0.02075338
-0.042635951 0.032362163 -0.020713227
-0.042596579 0.027373113 -0.020639086
-0.042594209 0.022428494 -0.020758066
-0.042512503 0.017639786 -0.020672059
-0.043713588 0.013507339 -0.020567764
-0.043731794 -0.013617346 -0.020675136
-0.042436305 -0.017531112 -0.020746922
-0.042524584 -0.0228188 -0.020760683
-0.04256938 -0.027708568 -0.020736361
-0.042473339 -0.032487717 -0.020703703
-0.042516079 -0.037417535 -0.020730071
-0.041926663 -0.041781768 -0.020668684
-0.036755893 0.046703454 -0.02060918
-0.037350878 0.042554665 -0.020675007
-0.037507098 0.037501451 -0.02072623
-0.037528627 0.032372929 -0.020692309
-0.037584804 0.027332153 -0.020662526
-0.037561055 0.022536086 -0.020707665
-0.038744908 0.018505024 -0.020610776
-0.038777236 -0.01831005 -0.020731362
-0.037450388 -0.022644874 -0.020663794
-0.037640478 -0.027628189 -0.020686341
-0.037521686 -0.032516915 -0.02070014
-0.037602812 -0.037486672 -0.020720437
-0.037502259 -0.042334184 -0.020733254
-0.036744781 -0.046674795 -0.020729104
-0.031700287 0.051623333 -0.020591272
-0.032507017 0.047325686 -0.020675646
-0.032361653 0.042500645 -0.020693392
-0.03249424 0.037325311 -0.020729909
-0.032570701 0.032441761 -0.020674283
-0.03249041 0.027520319 -0.02066019
-0.033576652 0.023793381 -0.020580195
-0.033656217 -0.023546116 -0.020700715
-0.032506507 -0.02754835 -0.020777106
-0.032467145 -0.03261001 -0.020706195
-0.032531027 -0.037560858 -0.020741718
-0.032410238 -0.042377591 -0.020719429
-0.032561105 -0.047522582 -0.02071975
-0.031870805 -0.051900961 -0.020708503
-0.026715573 0.056954291 -0.020632528
-0.02753626 0.052442715 -0.020709205
-0.027475543 0.047300328 -0.020710943
-0.027447874 0.042291433 -0.020697027
-0.027627651 0.037354141 -0.020691758
-0.027627494 0.032312714 -0.020707482
-0.028800018 0.028503658 -0.020533854
-0.028633542 -0.028698875 -0.020696189
-0.02747904 -0.032522485 -0.020699847
-0.027516335 -0.037566818 -0.02073111
-0.027393566 -0.042530224 -0.020668413
-0.02746914 -0.047586504 -0.020742277
-0.027505144 -0.052426342 -0.020714857
-0.026977587 -0.056624271 -0.020654472
-0.025032157 -0.060203295 -0.020598844
-0.021744866 0.061792519 -0.020512037
-0.022459026 0.057528798 -0.020621303
-0.022497427 0.052398317 -0.020763997
-0.022561138 0.047507893 -0.02071083
-0.022403205 0.042525154 -0.02070106
-0.022524556 0.037334703 -0.020695081
-0.023412613 0.033907365 -0.020602362
-0.023351487 -0.033755198 -0.020719031
-0.022503963 -0.037645712 -0.020803284
-0.022655182 -0.042470951 -0.020679649
-0.022510612 -0.047435373 -0.020693714
-0.022546744 -0.052456439 -0.020724753
-0.022536905 -0.057371166 -0.020717725
-0.021969959 -0.061589088 -0.020694297
-0.01686967 0.066780858 -0.020544857
-0.017562097 0.062573351 -0.020674225
-0.017419098 0.057508662 -0.020673817
-0.017458403 0.052594744 -0.020736728
-0.017533695 0.047525462 -0.020734837
-0.017568888 0.042570408 -0.020737246
-0.018597011 0.038741458 -0.02054337
-0.018540798 -0.038680676 -0.020644939
-0.017604586 -0.042522706 -0.020742815
-0.017433222 -0.04743728 -0.020666627
-0.017491465 -0.052490514 -0.02074326
-0.017538438 -0.057415333 -0.020725559
-0.017679518 -0.062296391 -0.020711567
-0.016807301 -0.066737965 -0.020686228
-0.013433838 0.07072337 -0.020526361
-0.012511426 0.067510605 -0.020540155
-0.012459703 0.062717795 -0.020733669
-0.01240826 0.057496853 -0.020673119
-0.012539346 0.052415948 -0.020726692
-0.012501038 0.047415201 -0.020675275
-0.013601491 0.043788038 -0.020558683
-0.013599364 -0.043710701 -0.020773422
-0.01245992 -0.047360517 -0.02065075
-0.012685324 -0.052352108 -0.020757712
-0.012511523 -0.057466436 -0.020698542
-0.012597105 -0.062679902 -0.020730356
-0.012718405 -0.067519277 -0.02070725
-0.013149627 -0.070668384 -0.020746207
-0.0090043321 0.066585533 -0.020269554
-0.0076730219 0.062487386 -0.020646941
-0.0075404295 0.057391733 -0.020639071
-0.0075992444 0.05243884 -0.020687029
-0.0086509408 0.048675273 -0.020568501
-0.0086365957 -0.048579525 -0.020641735
-0.0075646969 -0.052611448 -0.020712052
-0.0073937452 -0.057645533 -0.020747315
-0.0075539639 -0.062568158 -0.020742903
-0.0091162315 -0.066318303 -0.020756463
-0.003901025 0.061224435 -0.020556644
-0.0025637012 0.057440866 -0.020639939
-0.0036074186 0.053508893 -0.02057692
-0.0034295856 -0.053695671 -0.020517154
-0.0025281219 -0.057478767 -0.020736439
-0.0038719059 -0.061316669 -0.020557461
4.9913411e-05 0.056839589 -0.020187266
2.7595759e-05 -0.056478776 -0.020638734
-0.08003699 0.0051845852 -0.017760536
-0.081819259 0.0020739811 -0.017618097
-0.081945866 -0.0020399685 -0.017640807
-0.080026627 -0.0051101656 -0.017860956
-0.075087316 0.010163186 -0.01704644
-0.076981157 0.0071517653 -0.017696749
-0.07780315 0.0029825543 -0.01875546
-0.077918932 -0.0028660761 -0.018743983
-0.076976292 -0.006953836 -0.017647859
-0.075026818 -0.010193833 -0.015596529
-0.070184916 0.015078385 -0.017165292
-0.071987793 0.012050475 -0.017646186
-0.072866805 0.0080244979 -0.018641954
-0.072460152 0.0025585701 -0.019285137
-0.072499491 -0.0023548247 -0.019257993
-0.072914392 -0.0077125337 -0.018786868
-0.071956232 -0.011992604 -0.017640831
-0.070107013 -0.015066521 -0.017423041
-0.065081336 0.020132301 -0.016518824
-0.067073509 0.017044771 -0.017514575
-0.067812301 0.012920598 -0.018690975
-0.067481875 0.0076367292 -0.019290432
-0.067399032 0.0024008718 -0.019235978
-0.067485534 -0.0023557644 -0.019271605
-0.067463249 -0.0074591669 -0.019264309
-0.06788411 -0.012863041 -0.018750053
-0.067038864 -0.016924812 -0.01745213
-0.06511233 -0.020107061 -0.017178172
-0.060183637 0.02513146 -0.018459901
-0.061946757 0.022142034 -0.017524054
-0.062856793 0.017877506 -0.0187348
-0.062556967 0.012633166 -0.019354951
-0.06251739 0.0074884524 -0.019302992
-0.062397305 0.0022675525 -0.019280069
-0.062563397 -0.0023893113 -0.01931528
-0.062508114 -0.0074901539 -0.019271875
-0.062427692 -0.012400796 -0.019342523
-0.063035764 -0.017895801 -0.018661395
-0.061958194 -0.021973744 -0.017573183
-0.060107898 -0.025018388 -0.015313873
-0.055143505 0.030086022 -0.019469369
-0.056968689 0.02703324 -0.017606288
-0.058039393 0.023147965 -0.018591421
-0.057653151 0.017724603 -0.019225687
-0.057681173 0.012561881 -0.019280229
-0.05751539 0.0075224545 -0.019263651
-0.05699927 0.0021755369 -0.018329551
-0.057127152 -0.0020237151 -0.018379696
-0.057467919 -0.0074783913 -0.019315612
-0.057469252 -0.012468542 -0.019333193
-0.057486326 -0.01747068 -0.019286061
-0.057772085 -0.022852017 -0.018624734
-0.056944199 -0.027114011 -0.017615922
-0.055119194 -0.0300752 -0.01604237
-0.050249767 0.035102252 -0.018580906
-0.052014966 0.032052908 -0.017525874
-0.052753061 0.027923662 -0.018707683
-0.052366108 0.022547977 -0.019311462
-0.052330814 0.017618377 -0.01925925
-0.052587166 0.012601078 -0.019265061
-0.052033976 0.0070803757 -0.018232543
-0.053511526 0.0032974838 -0.017569283
-0.053349219 -0.0035067464 -0.017548243
-0.05218837 -0.0070122643 -0.018293075
-0.052318525 -0.012348017 -0.019314038
-0.0524671 -0.017550852 -0.019302847
-0.052521236 -0.022355389 -0.019269794
-0.052879862 -0.027807549 -0.018682545
-0.052022755 -0.032023728 -0.017620834
-0.05010809 -0.03502994 -0.019039566
-0.045171749 0.040097684 -0.01597449
-0.047040123 0.037053615 -0.017635606
-0.047871921 0.032884989 -0.018750779
-0.047470141 0.027650109 -0.019308697
-0.047686022 0.022451989 -0.019319342
-0.047391094 0.017555617 -0.019268388
-0.047127634 0.012099089 -0.01821956
-0.048483662 0.0083687464 -0.017561242
-0.048524655 -0.0084451288 -0.017565103
-0.046963584 -0.01197654 -0.018132146
-0.047383171 -0.017377099 -0.019298827
-0.04752389 -0.022341158 -0.01932135
-0.047455546 -0.027472338 -0.019290317
-0.047904909 -0.033057969 -0.018551441
-0.046956863 -0.037109878 -0.017556842
-0.045079514 -0.040113676 -0.018254232
-0.040038552 0.045157336 -0.018147526
-0.042015176 0.042017851 -0.017570753
-0.042834964 0.037772082 -0.018651359
-0.042604625 0.032303147 -0.01936581
-0.042418551 0.027635003 -0.019231154
-0.042473543 0.022524389 -0.019292383
-0.042062331 0.016886389 -0.018225254
-0.043411732 0.013512083 -0.017619893
-0.043461207 -0.013549113 -0.01741273
-0.042009741 -0.017059011 -0.018245555
-0.042607751 -0.022455033 -0.019349463
-0.04269373 -0.02739297 -0.01929977
-0.042640511 -0.032731574 -0.019337988
-0.042899814 -0.038030472 -0.018701017
-0.042043705 -0.042026468 -0.017514409
-0.040120088 -0.045136668 -0.018029913
-0.035202481 0.050124262 -0.016852358
-0.037073608 0.047139376 -0.017597076
-0.037965775 0.042920057 -0.018749643
-0.037410315 0.037518486 -0.019202383
-0.037589952 0.032225199 -0.019427128
-0.037305605 0.027540181 -0.019328576
-0.036996912 0.02200398 -0.018126063
-0.038365074 0.018576294 -0.017613035
-0.038591236 -0.018370904 -0.01735061
-0.037033278 -0.021978851 -0.018249016
-0.037612759 -0.027454371 -0.019292826
-0.037526265 -0.032575339 -0.019365465
-0.03757463 -0.0376174 -0.019309992
-0.037919644 -0.042921044 -0.018596213
-0.03703865 -0.047089614 -0.017664069
-0.035126176 -0.050148439 -0.01656845
-0.032052863 0.05201545 -0.017606083
-0.032901738 0.048016358 -0.018737759
-0.032645088 0.042569466 -0.019332411
-0.032564525 0.03750141 -0.019219887
-0.032488354 0.032206491 -0.019418254
-0.032015517 0.027006261 -0.018152252
-0.033493668 0.023385948 -0.017525649
-0.033445086 -0.023481082 -0.017428137
-0.031967156 -0.027032262 -0.018245321
-0.032314897 -0.032487549 -0.01937148
-0.032446463 -0.037739705 -0.019313829
-0.032497544 -0.042662602 -0.019343965
-0.032885753 -0.048017278 -0.018743446
-0.032058217 -0.052017167 -0.017712006
-0.030159386 -0.055123866 -0.017686194
-0.025250327 0.060132869 -0.016850531
-0.027083492 0.057025895 -0.017571528
-0.027905354 0.052826345 -0.018776571
-0.027485952 0.047479264 -0.01925431
-0.027406055 0.042379271 -0.019352533
-0.027592458 0.03746473 -0.019260971
-0.02694647 0.031942353 -0.018185863
-0.028326359 0.028543722 -0.017599311
-0.028449861 -0.028508941 -0.017684637
-0.026990127 -0.032070946 -0.018210731
-0.027543215 -0.037688639 -0.019278202
-0.027449122 -0.04261082 -0.019337436
-0.027435884 -0.047519404 -0.01933866
-0.027906183 -0.052955087 -0.01856336
-0.027043723 -0.057047509 -0.017696798
-0.020207398 0.065249532 -0.017055232
-0.02204344 0.06206955 -0.017602872
-0.022938199 0.057965998 -0.018651843
-0.022539081 0.052671768 -0.019382406
-0.022534499 0.047591276 -0.019284684
-0.022530712 0.042492598 -0.019369869
-0.022057209 0.037020359 -0.018206075
-0.023475444 0.033502754 -0.017489029
-0.023496771 -0.033515863 -0.017544916
-0.022113854 -0.037048023 -0.018222341
-0.022391265 -0.042549469 -0.019322636
-0.022400493 -0.047532987 -0.019342316
-0.022497941 -0.052615218 -0.019306645
-0.022968413 -0.057987109 -0.018643253
-0.022015052 -0.062039282 -0.017595008
-0.020128982 -0.065171316 -0.016777175
-0.017044893 0.067056976 -0.017639231
-0.017931929 0.062934108 -0.018545913
-0.017615078 0.057304859 -0.019319648
-0.017565057 0.052559007 -0.019311659
-0.017627984 0.047514737 -0.019319454
-0.017061438 0.042046148 -0.018172055
-0.01841031 0.038533483 -0.017496102
-0.018496364 -0.038388588 -0.017486567
-0.016943287 -0.04202605 -0.018144947
-0.017606992 -0.047555786 -0.019320877
-0.01747846 -0.052498959 -0.019299179
-0.01743071 -0.057293642 -0.019353831
-0.017961876 -0.063048035 -0.018658798
-0.017000673 -0.066977561 -0.017546648
-0.015224547 -0.070175156 -0.016667023
-0.013304471 0.070651814 -0.017625023
-0.01227202 0.068099886 -0.017950824
-0.012632295 0.062391259 -0.019243984
-0.012549957 0.057518244 -0.019328373
-0.012550863 0.052587718 -0.019328039
-0.012057102 0.046957519 -0.018184116
-0.013476316 0.04348506 -0.017526666
-0.013471825 -0.043400206 -0.017616991
-0.011961132 -0.046984173 -0.018088197
-0.012561646 -0.052463692 -0.019302772
-0.012453916 -0.057408947 -0.019340562
-0.012614445 -0.062609546 -0.019314876
-0.012274904 -0.068171211 -0.017922329
-0.013099131 -0.070645444 -0.017509636
-0.0086420132 0.066314183 -0.017383015
-0.0070952382 0.062896691 -0.018218143
-0.0073027345 0.057479259 -0.019330272
-0.0068745716 0.051978439 -0.018101228
-0.0084949518 0.048504729 -0.017524935
-0.0084712179 -0.048458032 -0.017511152
-0.0068946662 -0.051938638 -0.018114321
-0.0074479636 -0.057421304 -0.019355869
-0.0069973576 -0.063129589 -0.018104715
-0.0086345049 -0.06631954 -0.017444789
-0.0037674345 0.061437827 -0.01764353
-0.001959689 0.057463266 -0.017822603
-0.0035313666 0.053474251 -0.017548282
-0.0035315501 -0.053394757 -0.017502973
-0.0019046734 -0.057458397 -0.017730508
-0.0036042111 -0.061364859 -0.017599713
4.079843e-05 0.057285234 -0.01775085
3.3767701e-05 -0.057149123 -0.017464096
-0.080113322 0.0050581452 -0.010335732
-0.081928924 0.0022307781 -0.012567711
-0.081911355 -0.0022366091 -0.012459718
-0.080018423 -0.0051132827 -0.011421056
-0.075097792 0.010115322 -0.011356717
-0.077082023 0.0071654269 -0.012503065
-0.079287596 0.0041944114 -0.01253182
-0.079217687 -0.0042532752 -0.012492904
-0.077064358 -0.0070607509 -0.012565495
-0.075004123 -0.010071803 -0.014700642
-0.070233934 0.015066293 -0.011952584
-0.072134562 0.012137666 -0.012579742
-0.074195378 0.0092412261 -0.012215514
-0.074323677 -0.0091521461 -0.012589214
-0.072084121 -0.012123881 -0.012581328
-0.070188835 -0.015038125 -0.012411291
-0.065190248 0.020092683 -0.01224248
-0.067129105 0.017082844 -0.012447147
-0.069204286 0.014350954 -0.012562097
-0.069217525 -0.014077303 -0.012660184
-0.06708771 -0.017099049 -0.012470869
-0.060137194 0.025055042 -0.011607849
-0.062102485 0.022173107 -0.012540661
-0.064206794 0.019127164 -0.012561765
-0.064235218 -0.019136569 -0.012501932
-0.06207164 -0.022196645 -0.012460832
-0.06009391 -0.025140585 -0.012187158
-0.055209775 0.030036965 -0.012779554
-0.057168603 0.027111832 -0.012433569
-0.059372589 0.024156667 -0.012402968
-0.056189656 0.0013704939 -0.012682226
-0.056172419 -0.0014117252 -0.012787555
-0.059269931 -0.024109036 -0.012831344
-0.057115559 -0.027123276 -0.012657261
-0.055123147 -0.03003451 -0.011068778
-0.050075073 0.035179786 -0.0122991
-0.052035682 0.032216735 -0.012478139
-0.054231852 0.029218875 -0.0124102
-0.051208351 0.0065190895 -0.012564339
-0.05347475 0.0033443836 -0.012667553
-0.053274922 -0.0034485946 -0.012414893
-0.051377669 -0.0063247466 -0.012693068
-0.054156478 -0.02914748 -0.01247466
-0.052179012 -0.032091346 -0.012485394
-0.050106794 -0.035086453 -0.010453032
-0.0471984 0.037086729 -0.012580116
-0.049281348 0.034145795 -0.012414505
-0.046191119 0.011411979 -0.012573306
-0.048427198 0.0082754828 -0.012484382
-0.048474509 -0.0082681561 -0.012526304
-0.046280395 -0.011419551 -0.012510295
-0.049197026 -0.034099821 -0.012351679
-0.04717163 -0.03709472 -0.01250366
-0.045121197 -0.04010487 -0.01316697
-0.04016611 0.045196164 -0.011965998
-0.042043731 0.042238679 -0.012436824
-0.044160523 0.039243944 -0.012726545
-0.041445717 0.016249429 -0.012532174
-0.043367434 0.013494802 -0.01248374
-0.043399952 -0.013395674 -0.01248146
-0.041270569 -0.016330374 -0.012519176
-0.044177238 -0.039221782 -0.012523592
-0.042147294 -0.04210246 -0.012509021
-0.040280461 -0.045033831 -0.012308575
-0.03517548 0.050176896 -0.012633661
-0.037102446 0.04709037 -0.012490755
-0.039277595 0.044219211 -0.012433589
-0.036327802 0.021392286 -0.012526451
-0.038395885 0.018529985 -0.01252903
-0.03847022 -0.018328922 -0.012524041
-0.036367904 -0.021348963 -0.012519915
-0.039301582 -0.044203207 -0.012636251
-0.037053168 -0.047155961 -0.012527319
-0.035259478 -0.050069168 -0.01276245
-0.030066224 0.055306539 -0.014016181
-0.032210387 0.052081894 -0.012611434
-0.034313247 0.049068511 -0.012225498
-0.031265929 0.026360661 -0.012674859
-0.033502098 0.023365615 -0.012344776
-0.033384897 -0.023449477 -0.012600396
-0.03139269 -0.026272021 -0.012342486
-0.034224853 -0.049178455 -0.012485413
-0.03203382 -0.052121863 -0.012525059
-0.025243282 0.060122572 -0.011386548
-0.027196355 0.057129551 -0.012517016
-0.029281663 0.054138321 -0.012490449
-0.026309799 0.031333871 -0.012656564
-0.028494738 0.028399162 -0.012526521
-0.028400598 -0.028475394 -0.012555161
-0.026316959 -0.031401377 -0.012464788
-0.029192908 -0.054177634 -0.01250446
-0.027132342 -0.057115585 -0.012473672
-0.02532417 -0.060012989 -0.014787287
-0.020246416 0.065261103 -0.012476809
-0.022103833 0.062157664 -0.012436158
-0.024303466 0.05907597 -0.01246216
-0.021419449 0.036293626 -0.012454085
-0.023392219 0.033468697 -0.012471734
-0.023383174 -0.033446703 -0.012446586
-0.021396935 -0.036419149 -0.012620293
-0.024005402 -0.059323136 -0.012494605
-0.02212543 -0.062057797 -0.012543417
-0.020274704 -0.065056801 -0.010026736
-0.015262229 0.07008402 -0.011885462
-0.017134575 0.067142434 -0.012556992
-0.018988708 0.064402178 -0.012580762
-0.016331332 0.041232087 -0.012478041
-0.01852317 0.038327642 -0.012569829
-0.018467633 -0.038452085 -0.012419892
-0.016358716 -0.041334849 -0.012421664
-0.0191184 -0.064193986 -0.012587888
-0.01711927 -0.067143738 -0.012460634
-0.015099523 -0.070207551 -0.012020322
-0.013326135 0.070735529 -0.012488485
-0.012204339 0.068615325 -0.012520787
-0.01112994 0.046402022 -0.012471431
-0.013461402 0.043395661 -0.012528291
-0.013481534 -0.043430384 -0.012479318
-0.011392966 -0.046210296 -0.012467334
-0.012089489 -0.068604171 -0.012509719
-0.013160686 -0.070690989 -0.012485029
-0.0087113529 0.066304967 -0.012577174
-0.0064614955 0.063513912 -0.012543936
-0.0064528394 0.0511848 -0.012474503
-0.008389676 0.048464093 -0.012528742
-0.0083187381 -0.048522945 -0.012508841
-0.0063485061 -0.05130608 -0.012540177
-0.0065005412 -0.063564427 -0.012562506
-0.008635507 -0.066356458 -0.012402803
-0.0038115641 0.061282851 -0.012610525
-0.001590275 0.057438303 -0.012505386
-0.0034281553 0.053452823 -0.012359414
-0.0034977179 -0.053530484 -0.012439947
-0.0015994246 -0.057381731 -0.012572713
-0.0036246604 -0.06130442 -0.012555444
6.108766e-05 0.057247359 -0.012543957
8.1745631e-05 -0.057146903 -0.012563304
-0.0800476 0.0051182322 -0.0070164651
-0.082076691 0.0020902909 -0.0074682655
-0.08203081 -0.0021798082 -0.0075143287
-0.080062628 -0.0051151086 -0.0062029287
-0.075064279 0.010052003 -0.0060314275
-0.076978743 0.0072020218 -0.0075706663
-0.079162411 0.0041720457 -0.0072887912
-0.079137027 -0.0042915875 -0.0073596807
-0.077124164 -0.0071360064 -0.0075115385
-0.075107507 -0.010087766 -0.0071545793
-0.070216849 0.015061254 -0.0077501033
-0.07211823 0.012095049 -0.0075555649
-0.074210644 0.0091041792 -0.0074703526
-0.074290931 -0.0090545276 -0.0076908683
-0.072203778 -0.012112319 -0.0074101612
-0.070186011 -0.015111588 -0.0050017983
-0.065086938 0.020031201 -0.0058446741
-0.067123763 0.017164325 -0.007566411
-0.069198728 0.014209038 -0.0076823207
-0.069173552 -0.014197697 -0.0073346412
-0.067096524 -0.017172057 -0.0075341947
-0.065029681 -0.0200714 -0.0062648505
-0.060120352 0.025023308 -0.0082065491
-0.062113572 0.022117082 -0.0075499956
-0.064300105 0.019090872 -0.0072972281
-0.064184919 -0.0191963 -0.0075238347
-0.062174976 -0.022056742 -0.007534585
-0.060048286 -0.02524687 -0.0085010864
-0.055058144 0.030209882 -0.0071154125
-0.057206381 0.02709301 -0.0075313831
-0.059217639 0.024052175 -0.0076530976
-0.056160361 0.0015491396 -0.0073726289
-0.056140423 -0.0014025292 -0.0074038208
-0.059180148 -0.024154017 -0.0074978108
-0.057071395 -0.027123904 -0.0075167585
-0.05520349 -0.030103128 -0.0066753207
-0.050239474 0.035039842 -0.0069177765
-0.052115086 0.032112192 -0.0076645948
-0.05410064 0.029257333 -0.0073828865
-0.05124766 0.0063784998 -0.0076195151
-0.053407554 0.0034251024 -0.0074132271
-0.053408906 -0.0035143557 -0.0077394014
-0.051339664 -0.0063197189 -0.0073268339
-0.054080818 -0.029264424 -0.0077760918
-0.052101396 -0.032104719 -0.0075307013
-0.050170757 -0.035139889 -0.0075444374
-0.045074426 0.040129341 -0.0071784351
-0.04717363 0.037219979 -0.0075413696
-0.049131811 0.034291178 -0.007361928
-0.046291359 0.011450161 -0.0073057394
-0.048553739 0.0082400683 -0.007519911
-0.048485067 -0.0084272819 -0.0074523445
-0.046169385 -0.011505365 -0.0075516393
-0.049041886 -0.03425293 -0.0075432109
-0.047086727 -0.037092801 -0.0074803932
-0.045137744 -0.040189341 -0.0073401351
-0.040101513 0.04515104 -0.0081062326
-0.042095028 0.042132258 -0.0075759189
-0.04403954 0.03933036 -0.0075798621
-0.041482143 0.016244741 -0.0075068502
-0.043445092 0.013289025 -0.0075240107
-0.043452378 -0.013385578 -0.0075254543
-0.041221555 -0.016421381 -0.007565029
-0.044209745 -0.039076451 -0.007564839
-0.042147983 -0.042127881 -0.0074263839
-0.040090635 -0.045180246 -0.0074157631
-0.035191823 0.050214037 -0.008201533
-0.037203312 0.04712069 -0.0075095491
-0.03920443 0.044252563 -0.0073499531
-0.036301155 0.021335617 -0.0074716965
-0.038452461 0.018420801 -0.0075505218
-0.038372442 -0.018506499 -0.0074186213
-0.036439545 -0.02125353 -0.0076660858
-0.039226219 -0.044102736 -0.0075684199
-0.037070885 -0.047112718 -0.0075096348
-0.035194047 -0.050082825 -0.0067982282
-0.030178385 0.055131011 -0.0077003306
-0.032093514 0.05211189 -0.0076291915
-0.03414559 0.049225125 -0.0074018883
-0.031304467 0.026298584 -0.0074265664
-0.033469848 0.023369659 -0.007584583
-0.033493392 -0.023482027 -0.0075727543
-0.031267997 -0.026370157 -0.0075914375
-0.034269895 -0.049107388 -0.0075680362
-0.032126576 -0.052072015 -0.0074125193
-0.030067945 -0.055130888 -0.0078936331
-0.027100688 0.057223003 -0.0075174402
-0.029299362 0.054233901 -0.0076926872
-0.026307313 0.03134181 -0.0075504621
-0.028460804 0.02841497 -0.0074203052
-0.028419366 -0.028512932 -0.0075077284
-0.026249671 -0.0314622 -0.007628493
-0.029207345 -0.054116961 -0.0076395832
-0.027105629 -0.057101693 -0.0075287437
-0.025202751 -0.06005834 -0.0081723873
-0.020167492 0.065277807 -0.0075662741
-0.022095697 0.062140256 -0.0074976515
-0.024238274 0.059154764 -0.0074091312
-0.021404427 0.036269072 -0.0076709483
-0.023436341 0.03344189 -0.0075489227
-0.023395255 -0.03350924 -0.007527139
-0.021391436 -0.036272738 -0.0076434463
-0.024231859 -0.059096497 -0.0076223081
-0.022144116 -0.062078632 -0.0075558778
-0.020151796 -0.065265946 -0.0087195411
-0.017112859 0.067041986 -0.0075000953
-0.019197406 0.064127028 -0.0075513572
-0.016367691 0.041351572 -0.0075431587
-0.018496357 0.038371433 -0.0076476615
-0.018463396 -0.038475171 -0.0075181425
-0.016216667 -0.041478686 -0.007509185
-0.019274959 -0.064192183 -0.0077850474
-0.017055934 -0.067112513 -0.0075107692
-0.013377594 0.070670336 -0.0075436598
-0.012075892 0.068615511 -0.0072854813
-0.011302 0.046272419 -0.0076028788
-0.013386682 0.043510687 -0.0076206755
-0.013416986 -0.043419216 -0.0076275421
-0.011377716 -0.046309534 -0.007593561
-0.012133629 -0.068570316 -0.0074423812
-0.013317203 -0.07070215 -0.0074224565
-0.0086827837 0.066213302 -0.0075521609
-0.0063657267 0.063458882 -0.0074520586
-0.0063550943 0.051332776 -0.0074960841
-0.0083586359 0.048456706 -0.007393253
-0.0085026212 -0.048437946 -0.0073985076
-0.0062992051 -0.051329009 -0.00757901
-0.0064695715 -0.063588999 -0.0074927453
-0.0086497897 -0.066306338 -0.0075311195
-0.0035775129 0.061201528 -0.0073680663
-0.001632581 0.057443216 -0.0075144572
-0.0035076204 0.05334897 -0.0075568706
-0.0034328201 -0.053453565 -0.0074567543
-0.0015819152 -0.057401717 -0.0074607171
-0.0037139084 -0.061360914 -0.0075477753
6.3286723e-05 0.057421174 -0.0078253169
4.6755675e-05 -0.057260528 -0.0077356342
-0.080035336 0.0050882753 -0.0019145757
-0.081850946 0.0021484208 -0.0023856051
-0.08184687 -0.0021262926 -0.0024429709
-0.075059772 0.010145661 -0.00047002174
-0.077043265 0.0070770076 -0.0023803469
-0.077806748 0.0029056575 -0.0013198704
-0.078032352 -0.0030268403 -0.0014076754
-0.076942526 -0.0070383223 -0.0024125632
-0.070203513 0.015086929 -0.0026715472
-0.071993597 0.012061729 -0.0024906527
-0.072913513 0.0080479933 -0.0012869164
-0.072574057 0.0026375437 -0.00080202147
-0.072570853 -0.0026073696 -0.0008313302
-0.072832525 -0.0079350816 -0.0013237763
-0.072010159 -0.012008326 -0.0024026129
-0.067084894 0.01703389 -0.0023920145
-0.067995138 0.013059638 -0.0013187826
-0.067595743 0.007847284 -0.00074850768
-0.067581743 0.0023782216 -0.00081597455
-0.067465149 -0.0026294352 -0.00081606396
-0.067478441 -0.0075623891 -0.000776954
-0.067867637 -0.012935749 -0.001273768
-0.06703677 -0.017058257 -0.0024785995
-0.065268539 -0.020004082 -0.0014224108
-0.060038991 0.025036011 -0.002441084
-0.062025912 0.022079565 -0.0024667233
-0.062859423 0.018026819 -0.0013305135
-0.062631488 0.012605625 -0.0007125251
-0.062467031 0.0075338697 -0.00074843504
-0.062653579 0.00246226 -0.00077570789
-0.062457163 -0.0025600966 -0.00080479495
-0.062348064 -0.0075906366 -0.00075086206
-0.062637888 -0.012450346 -0.00067238323
-0.063027315 -0.01794182 -0.001341721
-0.062074266 -0.022052797 -0.0024741143
-0.060142286 -0.025123946 -0.0028949529
-0.05700079 0.027130231 -0.0024440791
-0.057915691 0.023077618 -0.0013387501
-0.057474125 0.017583879 -0.00074777938
-0.057472128 0.012545601 -0.00075773336
-0.057427663 0.0076224664 -0.00074844621
-0.056921769 0.0020316571 -0.001791697
-0.056763418 -0.0019381761 -0.0018826649
-0.057517659 -0.0076530441 -0.00080455653
-0.057621084 -0.012525443 -0.00075052865
-0.057729539 -0.017565455 -0.00075624511
-0.057953045 -0.022891767 -0.0014017839
-0.05703155 -0.026997313 -0.0023343861
-0.055109851 -0.030082429 -0.0020373706
-0.052076828 0.03200252 -0.0024485141
-0.052915759 0.02800799 -0.0013327971
-0.052501243 0.022879936 -0.0007337518
-0.052575417 0.017663203 -0.00071546249
-0.052549526 0.012677936 -0.00073005445
-0.052128173 0.0071563437 -0.0017277412
-0.053399768 0.0035021794 -0.0025220364
-0.053375479 -0.0034856685 -0.0024779066
-0.052022792 -0.0070924191 -0.0018861759
-0.052584689 -0.012519838 -0.00071641617
-0.052655201 -0.01753995 -0.00076523982
-0.05265962 -0.022536749 -0.00077266991
-0.052900475 -0.027963392 -0.0014174338
-0.052073259 -0.031998686 -0.0024381299
-0.050112844 -0.035187609 -0.0041777901
-0.045006234 0.040274173 -0.0038357433
-0.046974923 0.037055835 -0.0024259649
-0.047927 0.032757625 -0.0013930798
-0.047531065 0.02746892 -0.0006190557
-0.047587596 0.022776594 -0.00072594173
-0.047450744 0.017676214 -0.00075157732
-0.047069795 0.012017488 -0.0018400308
-0.048500851 0.008315308 -0.0026154723
-0.048493039 -0.0083512729 -0.0024087913
-0.046989094 -0.01192261 -0.001942087
-0.047512621 -0.017254267 -0.00083423406
-0.047549281 -0.022485489 -0.00074432977
-0.047441829 -0.027535263 -0.00068673305
-0.047906019 -0.032931801 -0.001496844
-0.046999786 -0.037057839 -0.0024854224
-0.040037774 0.045236766 -0.0037890896
-0.042059872 0.042047117 -0.0023508258
-0.042938583 0.037896845 -0.0012981743
-0.042538445 0.032366846 -0.00076898746
-0.042482127 0.02745356 -0.00065173768
-0.042660605 0.02304659 -0.00075440109
-0.041990463 0.017092923 -0.0018133372
-0.043522313 0.013307274 -0.0024286844
-0.043487649 -0.013343397 -0.0023506898
-0.042094994 -0.016892819 -0.0018560383
-0.042501271 -0.022666631 -0.00071467273
-0.042418305 -0.027429532 -0.00068960339
-0.042665664 -0.032255929 -0.00073490478
-0.042777374 -0.038026854 -0.0013481639
-0.041939162 -0.042183042 -0.0024260078
-0.040018734 -0.045173224 -0.0039794911
-0.035198901 0.050142642 -0.0031741355
-0.036992189 0.047116168 -0.0023868922
-0.037990823 0.042872723 -0.0013013184
-0.037578482 0.037261378 -0.00069979206
-0.037564218 0.03237674 -0.0007611569
-0.03748633 0.027436521 -0.00062486157
-0.037027154 0.02214789 -0.0017237701
-0.03838224 0.018492069 -0.0024730936
-0.038405757 -0.018508689 -0.002510719
-0.037046678 -0.022060752 -0.0018447768
-0.037342269 -0.027369937 -0.00069018267
-0.037689097 -0.03227482 -0.00072781555
-0.037443727 -0.037747536 -0.00077389181
-0.038015161 -0.043018594 -0.0013685077
-0.037018687 -0.047065217 -0.00228462
-0.030096037 0.055141587 -0.0028276276
-0.032020967 0.05205689 -0.0023996551
-0.032897655 0.047897588 -0.0013364106
-0.032508522 0.042608205 -0.00075115822
-0.03241834 0.037306406 -0.00070275553
-0.032463878 0.032339752 -0.00077097677
-0.031926338 0.02687541 -0.0019209608
-0.033522379 0.023448827 -0.0023874436
-0.033480551 -0.023338966 -0.0023744684
-0.031844012 -0.027030008 -0.0017120913
-0.032668438 -0.03238593 -0.00078619644
-0.032584429 -0.037792794 -0.00078752451
-0.032503489 -0.042593587 -0.00073145516
-0.03283966 -0.048031107 -0.0013826452
-0.031986091 -0.052021388 -0.0024042074
-0.03016072 -0.05512787 -0.002532376
-0.025027376 0.06014058 -0.0028957911
-0.027009111 0.057077609 -0.0024672803
-0.027948156 0.052818518 -0.0013088137
-0.027470322 0.047371943 -0.00070111826
-0.02759294 0.042500466 -0.000785321
-0.027486 0.037347265 -0.00067836419
-0.027047135 0.031861722 -0.0018635429
-0.028351281 0.028535023 -0.0025334246
-0.028493183 -0.028446173 -0.0025878493
-0.026915664 -0.032026142 -0.0018503778
-0.027577233 -0.037620824 -0.00072845258
-0.027459722 -0.042461298 -0.00069319457
-0.027569409 -0.047579098 -0.00076871738
-0.027954772 -0.052943584 -0.001383055
-0.027115244 -0.057058055 -0.0024075676
-0.025105827 -0.060118403 -0.0024745185
-0.020163769 0.065261632 -0.0031915791
-0.022077184 0.061918646 -0.002366418
-0.022905827 0.057975531 -0.0013743509
-0.02237284 0.052320149 -0.00071469694
-0.022506936 0.047386944 -0.0007169228
-0.022583127 0.042435434 -0.00077982806
-0.02198595 0.036853798 -0.0018328484
-0.023364339 0.033536494 -0.0024519023
-0.023439771 -0.033457089 -0.0025465526
-0.021975813 -0.037125397 -0.0017679259
-0.022472173 -0.042358499 -0.00071229227
-0.022515099 -0.047647774 -0.00071129017
-0.022589292 -0.052363694 -0.0007284563
-0.022882955 -0.057943333 -0.0013578366
-0.022070657 -0.061999407 -0.0024745278
-0.020308143 -0.06508489 -0.003007466
-0.015279587 0.070072092 -0.0043141432
-0.017012993 0.067074716 -0.0024679229
-0.017935492 0.062993154 -0.0013179742
-0.017590389 0.057597209 -0.00067746639
-0.017461823 0.052451201 -0.00070561282
-0.01747185 0.047325298 -0.0007340461
-0.016988916 0.042007182 -0.0018674489
-0.018565545 0.038297307 -0.0023856256
-0.018409869 -0.038491856 -0.0024017673
-0.017097553 -0.042040501 -0.0017858148
-0.017576883 -0.047645595 -0.00069657341
-0.0175297 -0.052480213 -0.00075272098
-0.017548174 -0.057793677 -0.00078945048
-0.01797214 -0.063054949 -0.0014076568
-0.017150711 -0.067032367 -0.0024536904
-0.013301834 0.070696667 -0.0023431946
-0.012298752 0.068197981 -0.002130758
-0.012407597 0.062477939 -0.00068167597
-0.012757716 0.057583403 -0.00073067099
-0.01242093 0.052360334 -0.00067141838
-0.01189326 0.046972528 -0.0018955339
-0.013430306 0.043428276 -0.0025090966
-0.013563689 -0.043372728 -0.0023939107
-0.01182927 -0.047010023 -0.0018415246
-0.012322939 -0.052762989 -0.00070692599
-0.012735299 -0.057503708 -0.00076218881
-0.012415829 -0.062505364 -0.00077877194
-0.012270221 -0.068106957 -0.0020785239
-0.013305448 -0.070717782 -0.0024209414
-0.0086662071 0.066285491 -0.0024906788
-0.0069693984 0.062891267 -0.0019157231
-0.007591533 0.057568461 -0.00071069412
-0.0069192345 0.051922388 -0.0019011237
-0.0084768599 0.048446059 -0.002475556
-0.0085621383 -0.048491031 -0.0024773292
-0.0070467941 -0.051961511 -0.0017440598
-0.0074528405 -0.057265826 -0.00069695897
-0.0070882952 -0.062897049 -0.0018354133
-0.0087077087 -0.066294052 -0.0023695827
-0.0035997191 0.061163928 -0.0024570376
-0.0019740125 0.057415597 -0.0022577327
-0.0034176956 0.053595725 -0.002548499
-0.0034881576 -0.053423569 -0.0023664925
-0.0019512497 -0.057400476 -0.0021751877
-0.0036939769 -0.061357941 -0.0026909206
5.423147e-05 0.057559252 -0.0026374012
4.4348897e-05 -0.057513919 -0.0025707576
-0.081583478 0.0017061203 0.00061565079
-0.081426896 -0.002074013 0.00061171502
-0.076948062 0.006489242 0.00066900253
-0.077446096 0.0025608989 0.00074379519
-0.077460192 -0.0027716167 0.00074325129
-0.076673783 -0.0068525644 0.00066332333
-0.070135832 0.01509849 3.170222e-05
-0.071865365 0.01153754 0.00063882023
-0.072525218 0.0075405603 0.00073120743
-0.072464757 0.0024820035 0.00071360543
-0.072578363 -0.0025802448 0.00079388916
-0.072567187 -0.0075844899 0.00069821812
-0.071506999 -0.01182924 0.00061965361
-0.066940479 0.016555451 0.00072436221
-0.067379951 0.012617514 0.00072608143
-0.067455366 0.0075803227 0.00072733872
-0.067288816 0.0025368328 0.00071719103
-0.067597948 -0.0027142365 0.00081414729
-0.067482017 -0.0076188617 0.00077009387
-0.067336895 -0.012383601 0.00066926889
-0.066863194 -0.016552322 0.00062163919
-0.061592501 0.02199357 0.0006694831
-0.062644795 0.01758066 0.00068290904
-0.062472023 0.012366474 0.00069394521
-0.062466782 0.0075435541 0.00071595609
-0.062353365 0.0026221015 0.00070255995
-0.062393859 -0.0026307402 0.00077011809
-0.062562846 -0.0074415598 0.00074386597
-0.062477689 -0.012437678 0.0006630253
-0.062480383 -0.017379703 0.00069273822
-0.061610159 -0.021662068 0.00067574717
-0.056788504 0.026689125 0.00070822984
-0.057547223 0.022762546 0.00071376748
-0.057524215 0.017514674 0.00075627491
-0.057490934 0.012481521 0.00072226487
-0.057363871 0.0076754321 0.00072668493
-0.057516143 0.0027190957 0.00074776262
-0.057489049 -0.0025898335 0.00078404881
-0.057508599 -0.0074044401 0.00075579248
-0.057517786 -0.012553376 0.00070646778
-0.057512667 -0.017445222 0.00075660832
-0.057478778 -0.022371732 0.00074345432
-0.056483388 -0.02687729 0.00065360963
-0.051826339 0.03182666 0.00065362453
-0.052423589 0.027649313 0.00066812709
-0.052448023 0.022525398 0.0007110592
-0.052435465 0.017559897 0.00072630122
-0.052586339 0.012507221 0.00069876574
-0.052530117 0.0076711224 0.00072432868
-0.053511158 0.0037182767 0.0005669035
-0.053724054 -0.003637712 0.00073473155
-0.052685138 -0.0075021922 0.00070998445
-0.052413274 -0.012398619 0.00065443106
-0.052412748 -0.017510857 0.00070542656
-0.052517992 -0.022342848 0.00069411658
-0.052395683 -0.027453728 0.00072668493
-0.051707312 -0.031843714 0.000493953
-0.046571564 0.036788534 0.00070893764
-0.04733992 0.032445274 0.00069240667
-0.04752323 0.027626058 0.00068088248
-0.047362909 0.022607885 0.00066425093
-0.047362324 0.017660415 0.0007013008
-0.047611117 0.012530298 0.00074693374
-0.048778862 0.0086027058 0.00074687414
-0.048558261 -0.0086411489 0.00071770698
-0.047577955 -0.012598393 0.00066856481
-0.047533039 -0.017438747 0.00074059144
-0.047463279 -0.022356888 0.00069737248
-0.047499418 -0.027572712 0.00073153339
-0.047522239 -0.032620884 0.00069458596
-0.046658106 -0.036893725 0.00056938082
-0.045087002 -0.040067941 0.00023447722
-0.041768968 0.041825924 0.00057282671
-0.04246328 0.037344895 0.00069950335
-0.042484425 0.032480866 0.00074804015
-0.042529691 0.02755668 0.00069562532
-0.042376406 0.022512993 0.00067715533
-0.042602357 0.017595774 0.00069249794
-0.043435361 0.013737334 0.00068429485
-0.043286961 -0.014041488 0.0005655624
-0.042828009 -0.017408691 0.00072866306
-0.042423006 -0.02236234 0.00069372542
-0.042545132 -0.027491506 0.00071038678
-0.042613555 -0.032590721 0.00067469478
-0.042588755 -0.037725046 0.00071111694
-0.041634247 -0.041784596 0.00061239675
-0.036776725 0.046553198 0.00070736371
-0.037719108 0.042281225 0.00063132308
-0.037578005 0.037444219 0.00075780787
-0.037608676 0.032436579 0.00070174411
-0.037445381 0.027305773 0.00067900307
-0.037463211 0.022288119 0.00072079152
-0.03838088 0.018689003 0.00059692003
-0.038826562 -0.018665211 0.00070391968
-0.037600666 -0.022376679 0.0007185284
-0.037623335 -0.027495384 0.00075168908
-0.037415758 -0.032646362 0.00068086572
-0.037505709 -0.037672181 0.00068245269
-0.037464354 -0.042581454 0.000706641
-0.036724906 -0.047095269 0.00053987466
-0.031756494 0.051717348 0.00063228048
-0.032462787 0.047410049 0.00076720864
-0.032565951 0.042283993 0.00070462376
-0.032384526 0.03750509 0.00074455701
-0.032418113 0.03233014 0.00073593482
-0.032486174 0.02728335 0.00069233403
-0.033702742 0.023491049 0.00069207884
-0.033547483 -0.023734443 0.00062743016
-0.03253191 -0.027623424 0.00070828199
-0.03251414 -0.032483596 0.0006266553
-0.032369398 -0.037705265 0.00070474297
-0.032522053 -0.042692117 0.00070190057
-0.032527283 -0.047699109 0.00070713647
-0.031810187 -0.051774442 0.00061661936
-0.026852401 0.056683894 0.00072981231
-0.027502354 0.052537829 0.00070123188
-0.02756352 0.047377251 0.00072108768
-0.027417809 0.042466976 0.00068579614
-0.027463235 0.037288755 0.00073468126
-0.027377732 0.032501455 0.00074198097
-0.02869188 0.028602185 0.00074957684
-0.02868964 -0.028751224 0.00068638846
-0.027710441 -0.032647669 0.00070032291
-0.027540004 -0.037752405 0.00070737116
-0.027454386 -0.042583283 0.00070875697
-0.027413061 -0.047525693 0.0006643571
-0.027448194 -0.052282762 0.00070615113
-0.026852319 -0.056451101 0.00065479428
-0.020055478 0.065157086 0.00043811277
-0.02177869 0.061810356 0.00079716928
-0.022548549 0.057189383 0.0006398093
-0.022545435 0.052526057 0.00069740415
-0.022622224 0.047549754 0.00066481903
-0.02243131 0.042545907 0.00067374483
-0.022536447 0.037437249 0.00078426301
-0.023684354 0.033506341 0.00058826804
-0.023609754 -0.033748593 0.00058216788
-0.022614906 -0.037857115 0.0006807521
-0.022497503 -0.042498544 0.00066196546
-0.022482898 -0.047456149 0.00064006448
-0.022444241 -0.052366998 0.00070859119
-0.022447389 -0.057444435 0.00067286938
-0.021612335 -0.061758175 0.00060331821
-0.016864328 0.066681854 0.00066572055
-0.017430717 0.06217666 0.00067909807
-0.017623022 0.057312477 0.00066759065
-0.017535955 0.052594364 0.00071924925
-0.017653262 0.047581613 0.00066301785
-0.017515609 0.042488229 0.00069999322
-0.01850941 0.038627632 0.00070363656
-0.018682646 -0.038672719 0.00068117306
-0.017471371 -0.042660367 0.00066196173
-0.017613024 -0.047353406 0.00065590255
-0.017576808 -0.052335776 0.00070683658
-0.01740548 -0.057492044 0.0006600786
-0.017498672 -0.062489495 0.00068884157
-0.016884781 -0.06647522 0.00061396509
-0.015046099 -0.07014595 0.00015059859
-0.012723927 0.070620701 0.00055533089
-0.012472495 0.067311645 0.00062770024
-0.01252899 0.062419634 0.00071345642
-0.012528326 0.057495091 0.00069474056
-0.012431103 0.052539811 0.00072709285
-0.012531355 0.047664016 0.00072557293
-0.013490791 0.043774996 0.00063733943
-0.013518547 -0.043633476 0.00056867674
-0.012618554 -0.047390688 0.00068075582
-0.012483338 -0.052263636 0.00068584271
-0.012411122 -0.05748548 0.00072595477
-0.012597246 -0.062475462 0.00069227815
-0.012421222 -0.06740132 0.00064507872
-0.013128033 -0.070448235 0.00029077195
-0.0087611172 0.066354543 0.00059719011
-0.0075191259 0.062318891 0.00069259666
-0.0073290146 0.057613384 0.00070634298
-0.0076501928 0.052636616 0.00069298781
-0.0086770514 0.048360247 0.00061056763
-0.0087092072 -0.048772078 0.00062538311
-0.0074202386 -0.052302796 0.00069982931
-0.0073667392 -0.057381075 0.00070811436
-0.0076515903 -0.062368318 0.00065081194
-0.0089947712 -0.065993533 0.00060644746
-0.0039183982 0.061373066 0.0007931795
-0.0024582073 0.057700291 0.00073289126
-0.003468344 0.05382061 0.00056868792
-0.0034264394 -0.053906672 0.00055573694
-0.0025731137 -0.057458881 0.00061609596
-0.0039971736 -0.061185986 0.00048450194
5.0346374e-05 0.05742991 0.00017764047
